REM MD5 9e9b698336da4eb74bd751496dab2946
FILE "Andretti Racing (France).bin" BINARY
  TRACK 01 MODE2/2352
    INDEX 01 00:00:00
  TRACK 02 AUDIO
    INDEX 00 54:21:59
    INDEX 01 54:23:59
  TRACK 03 AUDIO
    INDEX 00 56:34:65
    INDEX 01 56:36:65
  TRACK 04 AUDIO
    INDEX 00 59:05:14
    INDEX 01 59:07:14
  TRACK 05 AUDIO
    INDEX 00 61:42:61
    INDEX 01 61:44:61
  TRACK 06 AUDIO
    INDEX 00 64:07:26
    INDEX 01 64:09:26
REM LEADOUT 67:03:38
